<?xml version="1.0" encoding="UTF-8"?>
<svg xmlns="http://www.w3.org/2000/svg" width="1500" height="920" viewBox="0 0 1500 920" role="img" aria-label="Skills、Plugins、MCP 怎么选">
  <defs>
    <filter id="shadow" x="-20%" y="-20%" width="140%" height="140%">
      <feDropShadow dx="0" dy="18" stdDeviation="18" flood-color="#0f172a" flood-opacity="0.14"/>
    </filter>
    <marker id="arrow" viewBox="0 0 10 10" refX="8" refY="5" markerWidth="8" markerHeight="8" orient="auto-start-reverse">
      <path d="M 0 0 L 10 5 L 0 10 z" fill="#334155"/>
    </marker>
    <style><![CDATA[
      text{font-family:"Microsoft YaHei","PingFang SC","Segoe UI",Arial,sans-serif;letter-spacing:0;}
      .title{font-size:36px;font-weight:800;fill:#172033}
      .subtitle{font-size:20px;fill:#64748b}
      .card-title{font-size:22px;font-weight:800;fill:#172033}
      .card-body{font-size:18px;fill:#334155}
      .arrow-label{font-size:17px;font-weight:700;fill:#64748b}
      .caption{font-size:18px;fill:#334155}
    ]]></style>
  </defs>
  <rect width="1500" height="920" fill="#f6f8fb"/>
  <text x="64" y="76" class="title">Skills、Plugins、MCP 怎么选</text>
  <text x="64" y="112" class="subtitle">先判断问题类型，再选择知识、工具或外部系统连接能力</text>
  <g filter="url(#shadow)">
    <rect x="48" y="146" width="1404" height="708" rx="24" fill="#ffffff" stroke="#d8dee9"/>
    <g>
    <path d="M 390 355 L 430 355 L 470 355" fill="none" stroke="#334155" stroke-width="3" stroke-linecap="round" stroke-linejoin="round" marker-end="url(#arrow)"/>
    
  </g>
<g>
    <path d="M 750 355 L 790 355 L 830 355" fill="none" stroke="#334155" stroke-width="3" stroke-linecap="round" stroke-linejoin="round" marker-end="url(#arrow)"/>
    
  </g>
<g>
    <path d="M 1110 355 L 1125 430 L 1140 505" fill="none" stroke="#334155" stroke-width="3" stroke-linecap="round" stroke-linejoin="round" marker-end="url(#arrow)"/>
    
  </g>
<g>
    <path d="M 610 440 C 610 440, 610 560, 610 560" fill="none" stroke="#334155" stroke-width="3" stroke-linecap="round" stroke-linejoin="round" marker-end="url(#arrow)"/>
    
  </g>
<g>
    <path d="M 750 645 C 1010 645, 1010 590, 1270 590" fill="none" stroke="#334155" stroke-width="3" stroke-linecap="round" stroke-linejoin="round" marker-end="url(#arrow)"/>
    
  </g>
    <g>
    <rect x="110" y="270" width="280" height="170" rx="18" fill="#eaf1ff" stroke="#2563eb" stroke-width="2.4"/>
    <circle cx="138" cy="302" r="11" fill="#2563eb"/>
    <text x="162" y="310" class="card-title">Skill</text>
    <text class="card-body"><tspan x="134" y="352">固定方法论</tspan><tspan x="134" y="380">领域知识和操作流程</tspan></text>
  </g>
<g>
    <rect x="470" y="270" width="280" height="170" rx="18" fill="#f3ecff" stroke="#7c3aed" stroke-width="2.4"/>
    <circle cx="498" cy="302" r="11" fill="#7c3aed"/>
    <text x="522" y="310" class="card-title">Plugin</text>
    <text class="card-body"><tspan x="494" y="352">把 Skills</tspan><tspan x="494" y="380">工具和应用能力打包启用</tspan></text>
  </g>
<g>
    <rect x="830" y="270" width="280" height="170" rx="18" fill="#eaf8ef" stroke="#16a34a" stroke-width="2.4"/>
    <circle cx="858" cy="302" r="11" fill="#16a34a"/>
    <text x="882" y="310" class="card-title">MCP Server</text>
    <text class="card-body"><tspan x="854" y="352">连接仓库</tspan><tspan x="854" y="380">设计稿</tspan><tspan x="854" y="408">浏览器或业务系统</tspan></text>
  </g>
<g>
    <rect x="470" y="560" width="280" height="170" rx="18" fill="#fff7e6" stroke="#d97706" stroke-width="2.4"/>
    <circle cx="498" cy="592" r="11" fill="#d97706"/>
    <text x="522" y="600" class="card-title">App / Connector</text>
    <text class="card-body"><tspan x="494" y="642">面向具体产品</tspan><tspan x="494" y="670">提供稳定操作入口</tspan></text>
  </g>
<g>
    <rect x="1140" y="420" width="260" height="170" rx="18" fill="#e8fbff" stroke="#0891b2" stroke-width="2.4"/>
    <circle cx="1168" cy="452" r="11" fill="#0891b2"/>
    <text x="1192" y="460" class="card-title">推荐组合</text>
    <text class="card-body"><tspan x="1164" y="502">先选 Skill</tspan><tspan x="1164" y="530">再按需要补插件或 MCP</tspan></text>
  </g>
    
  </g>
</svg>
